# xmcd
#
# Track frame offsets:
#	150
#	16923
#	31566
#	43782
#	61773
#	74265
#	92590
#	113488
#	126602
#	145304
#	157574
#
# Disc length: 2294 seconds
#
# Revision: 1
# Processed by: cddbd v1.5.2PL0 Copyright (c) Steve Scherf et al.
# Submitted via: EasyCDDAExtractor 4.6.9.1
#
DISCID=8208f40b
DTITLE=Roch Voisine - Americana III
DYEAR=2010
DGENRE=Folk/Rock
TTITLE0=Turn ! Turn ! Turn !
TTITLE1=San Francisco
TTITLE2=California Dreamin'
TTITLE3=Mrs. Robinson
TTITLE4=God only knows
TTITLE5=A Horse with no Name
TTITLE6=Southern Cross
TTITLE7=I'm a Believer
TTITLE8=Both Sides now
TTITLE9=California Dreamin' - La terre promise
TTITLE10=San Francisco (Français-Anglais)
EXTD=
EXTT0=
EXTT1=
EXTT2=
EXTT3=
EXTT4=
EXTT5=
EXTT6=
EXTT7=
EXTT8=
EXTT9=
EXTT10=
PLAYORDER=
